<svg width="40" height="40" viewBox="0 0 22 22" fill="none" xmlns="http://www.w3.org/2000/svg">
<path d="M21.1837 10.8359L11.5298 1.18907C11.4602 1.11942 11.3777 1.06417 11.2868 1.02647C11.1959 0.988766 11.0985 0.96936 11.0001 0.96936C10.9017 0.96936 10.8042 0.988766 10.7134 1.02647C10.6225 1.06417 10.5399 1.11942 10.4704 1.18907L0.816479 10.8359C0.535229 11.1172 0.375854 11.4992 0.375854 11.8977C0.375854 12.725 1.04851 13.3977 1.87585 13.3977H2.89304V20.2813C2.89304 20.6961 3.2282 21.0313 3.64304 21.0313H9.50007V15.7813H12.1251V21.0313H18.3571C18.7719 21.0313 19.1071 20.6961 19.1071 20.2813V13.3977H20.1243C20.5227 13.3977 20.9048 13.2406 21.186 12.957C21.7696 12.3711 21.7696 11.4219 21.1837 10.8359Z" fill="#f87e59"/>
</svg>
